<svg version="1.1" id="Layer_1" xmlns="http://www.w3.org/2000/svg" xmlns:xlink="http://www.w3.org/1999/xlink" x="0px" y="0px"
	 width="100%" viewBox="0 0 1024 1024" enable-background="new 0 0 1024 1024" xml:space="preserve">
<path fill="#000000" opacity="1.000000" stroke="none" 
	d="
M703.000000,1025.000000 
	C468.666656,1025.000000 234.833328,1025.000000 1.000000,1025.000000 
	C1.000000,683.666687 1.000000,342.333344 1.000000,1.000000 
	C342.333344,1.000000 683.666687,1.000000 1025.000000,1.000000 
	C1025.000000,342.333344 1025.000000,683.666687 1025.000000,1025.000000 
	C917.833313,1025.000000 810.666687,1025.000000 703.000000,1025.000000 
M480.708160,292.778748 
	C480.708160,292.778748 480.572754,292.544006 479.969604,292.866638 
	C477.709259,298.906799 475.448944,304.946991 472.912720,311.498810 
	C472.906891,311.879822 472.901093,312.260803 472.346863,313.160675 
	C471.202881,317.140961 469.815491,321.071411 468.986694,325.116272 
	C468.230194,328.808289 466.147186,330.296448 462.617920,330.772797 
	C458.714844,331.299652 454.865051,332.221283 450.301849,332.849243 
	C449.861023,332.987946 449.420197,333.126678 448.266205,333.121033 
	C446.890839,333.425629 445.515472,333.730225 443.277679,333.926208 
	C429.335693,336.013519 415.382996,338.033997 401.464966,340.270325 
	C399.671600,340.558533 396.789490,341.805176 396.652496,342.890625 
	C396.436493,344.602081 397.710815,346.958771 399.070557,348.334320 
	C405.605896,354.945587 412.381561,361.319305 418.930878,367.641235 
	C397.049164,389.410645 375.767914,410.582672 354.342316,431.898346 
	C353.519379,430.556183 352.435455,428.917725 351.478241,427.208282 
	C327.763245,384.858063 304.117310,342.468933 280.262482,300.197632 
	C278.128296,296.415771 274.655823,293.389160 271.588715,289.485504 
	C271.077118,289.279755 270.565491,289.074005 270.063873,288.948212 
	C270.063873,288.948212 270.133606,288.907898 269.716705,288.350220 
	C265.684418,286.999390 261.665802,284.529938 257.617584,284.480408 
	C232.415894,284.171814 207.207565,284.405273 181.246765,284.325653 
	C167.476990,286.916168 161.009796,293.586700 158.989166,307.314056 
	C158.529617,310.435974 158.130112,313.566772 157.702515,316.693420 
	C153.831741,344.995789 149.899185,373.289917 146.108688,401.603058 
	C142.802185,426.301086 139.664566,451.021637 136.435837,475.730133 
	C133.961700,494.664032 131.455444,513.593689 128.975372,532.526855 
	C126.556023,550.996521 124.180901,569.472046 121.733307,587.937988 
	C118.872635,609.520325 115.914719,631.089844 113.073914,652.674805 
	C110.777985,670.119812 108.858406,687.618774 106.279045,705.020752 
	C104.022041,720.247742 110.011162,732.190430 123.627914,737.063843 
	C124.084328,737.070190 124.540749,737.076599 125.374336,737.383057 
	C125.374336,737.383057 125.834030,737.529114 125.834030,737.529114 
	C125.834030,737.529114 126.306084,737.429993 126.892532,737.827454 
	C127.588432,737.803101 128.284332,737.778748 129.903351,737.941406 
	C140.276871,737.921265 150.650375,737.901123 161.881775,738.113892 
	C164.245880,738.038879 166.610001,737.963928 169.852386,738.071350 
	C172.240433,738.022034 174.628479,737.972778 177.876495,738.170410 
	C180.264893,738.098694 182.653275,738.027039 185.960541,738.122986 
	C201.432220,738.133972 216.905396,738.279724 232.375076,738.109253 
	C242.985992,737.992310 245.951920,734.765686 245.960236,724.254089 
	C245.989594,687.154785 246.022766,650.055542 246.028885,612.956238 
	C246.029648,608.308655 245.877441,603.661133 245.964279,598.134644 
	C246.581253,594.616516 247.379837,591.119202 247.785400,587.576843 
	C250.217117,566.336853 252.536087,545.083862 254.949326,523.841736 
	C255.418930,519.708130 256.137451,515.602783 256.875458,510.568115 
	C269.720093,525.650208 281.748657,539.774109 293.119385,554.079285 
	C288.881927,556.289246 287.718353,560.024719 287.716675,564.496277 
	C287.711151,579.321899 287.560303,594.147522 287.556671,608.973145 
	C287.547119,647.790771 287.552216,686.608521 287.632172,725.426025 
	C287.649597,733.880981 290.921692,737.804626 298.495300,737.962219 
	C311.150726,738.225647 323.819702,738.258179 336.474396,737.987671 
	C344.776764,737.810181 348.247314,734.113464 348.276367,725.781372 
	C348.375732,697.293945 348.309174,668.805969 348.948029,640.109375 
	C349.345795,639.900879 349.743561,639.692383 351.040405,639.681152 
	C359.662018,639.629456 368.283600,639.577759 377.498627,639.748718 
	C377.705200,639.793701 377.911804,639.838745 378.314178,640.818298 
	C378.397522,668.941162 378.407532,697.064636 378.608673,725.186646 
	C378.669525,733.696167 382.566345,737.680359 391.148834,737.890259 
	C403.454681,738.191284 415.774139,738.228882 428.082520,738.037720 
	C437.219299,737.895874 440.860168,733.821899 440.862793,724.643860 
	C440.878906,668.726501 440.880188,612.809143 440.948242,556.891846 
	C440.951447,554.273254 441.544342,551.655334 442.460938,548.799377 
	C442.662933,548.212891 442.864929,547.626465 443.555817,546.558716 
	C458.035370,517.848572 472.514954,489.138397 487.577515,459.272278 
	C488.848175,471.644318 490.079041,482.521606 491.061310,493.421326 
	C493.178711,516.917664 495.111389,540.430603 497.226013,563.927185 
	C499.416809,588.269958 501.746429,612.600159 503.991302,636.938110 
	C506.373566,662.765381 508.627808,688.605042 511.132996,714.420288 
	C512.531555,728.831726 522.115356,737.760376 536.628906,737.922974 
	C557.279846,738.154419 577.936035,738.018738 598.589111,737.893127 
	C605.155823,737.853149 610.830688,735.382568 615.555908,730.672729 
	C623.075134,723.178040 622.596130,713.850586 621.580200,704.503418 
	C619.479187,685.173096 617.137939,665.868896 614.923218,646.550842 
	C611.839355,619.652100 608.824158,592.745483 605.698730,565.851624 
	C602.821960,541.097351 599.812317,516.358582 596.909119,491.607330 
	C594.101196,467.667633 591.404968,443.714783 588.566284,419.778809 
	C585.747559,396.010620 582.847656,372.251892 579.912109,348.497833 
	C578.652893,338.308929 577.213562,328.142365 575.966553,317.097839 
	C575.258972,311.839508 575.055481,306.450165 573.730713,301.352203 
	C571.497131,292.756500 566.455811,286.500366 556.785522,284.616791 
	C556.488403,284.438232 556.223267,284.477264 555.103210,284.415619 
	C535.553833,284.364258 515.999023,284.056610 496.459473,284.469971 
	C492.373840,284.556396 488.344482,287.302734 484.087280,288.801483 
	C484.087280,288.801483 483.997131,288.983429 483.350006,289.101471 
	C482.406281,290.262604 481.462555,291.423737 480.708160,292.778748 
M928.716064,376.022614 
	C935.175659,373.082397 938.308350,368.142944 937.953064,360.070251 
	C937.887878,344.383942 937.822693,328.697601 937.930054,312.104095 
	C937.929199,310.125580 938.059509,308.136627 937.903442,306.170410 
	C937.373291,299.490753 936.066101,293.130188 929.651794,288.399445 
	C928.869385,288.011719 928.086975,287.623993 926.940430,286.686707 
	C924.266602,286.045929 921.592712,285.405151 918.046692,284.433258 
	C917.049805,284.373932 916.052917,284.262909 915.056030,284.262695 
	C810.811829,284.239105 706.567627,284.199921 602.323547,284.324432 
	C599.211670,284.328125 596.101807,286.053284 592.423035,287.030060 
	C592.294434,287.353546 592.165833,287.677032 591.650757,288.522614 
	C591.312500,289.300629 590.974243,290.078644 590.097351,291.348907 
	C590.083496,294.229370 590.069641,297.109833 589.918457,300.506775 
	C589.987000,300.671234 590.055481,300.835663 589.984436,301.741486 
	C590.192566,304.550568 590.400635,307.359619 590.662537,310.962860 
	C590.839905,313.258484 591.017334,315.554138 591.006653,318.540344 
	C591.299622,320.376129 591.592590,322.211914 591.747131,324.956848 
	C592.547852,334.304962 593.348511,343.653107 594.020569,353.885498 
	C594.353882,357.653900 594.738098,361.418640 595.010437,365.191437 
	C595.678955,374.452179 599.687378,378.046021 609.923889,377.829865 
	C625.947998,377.740753 641.972107,377.651642 658.909973,377.784180 
	C668.941528,377.724213 678.973022,377.664215 689.808655,377.829590 
	C691.194580,377.919006 692.580566,378.008453 694.449768,378.583191 
	C700.143127,380.601074 702.921387,384.722656 703.144043,390.669373 
	C703.231323,392.998901 703.325562,395.330139 703.325928,397.660614 
	C703.340759,498.491333 703.337585,599.322083 703.373291,700.152771 
	C703.375183,705.477966 703.449280,710.824951 703.918457,716.123840 
	C705.021606,728.582214 713.932251,737.563293 726.488892,737.816650 
	C747.642395,738.243530 768.815063,738.254578 789.969604,737.876587 
	C800.463623,737.689148 808.018616,732.153992 811.092407,721.868042 
	C812.256958,717.971191 812.398865,713.662842 812.403931,709.541321 
	C812.490845,638.377747 812.464233,567.214172 812.505310,496.050568 
	C812.525574,461.054169 812.681152,426.057831 812.649963,391.061523 
	C812.645203,385.748322 814.519165,381.770721 819.638489,378.971680 
	C820.412598,378.612549 821.186768,378.253418 822.900940,377.965027 
	C829.041504,377.914032 835.181946,377.836670 841.322571,377.816681 
	C866.545898,377.734528 891.769226,377.669830 917.825684,377.805115 
	C921.218140,377.221741 924.610657,376.638367 928.716064,376.022614 
z"/>
<path fill="#FCA19B" opacity="1.000000" stroke="none" 
	d="
M123.008934,736.752930 
	C110.011162,732.190430 104.022041,720.247742 106.279045,705.020752 
	C108.858406,687.618774 110.777985,670.119812 113.073914,652.674805 
	C115.914719,631.089844 118.872635,609.520325 121.733307,587.937988 
	C124.180901,569.472046 126.556023,550.996521 128.975372,532.526855 
	C131.455444,513.593689 133.961700,494.664032 136.435837,475.730133 
	C139.664566,451.021637 142.802185,426.301086 146.108688,401.603058 
	C149.899185,373.289917 153.831741,344.995789 157.702515,316.693420 
	C158.130112,313.566772 158.529617,310.435974 158.989166,307.314056 
	C161.009796,293.586700 167.476990,286.916168 181.796722,284.728149 
	C184.245682,285.419586 186.136093,285.873322 188.044983,285.972778 
	C215.391556,287.397797 242.948730,282.904816 270.133606,288.907898 
	C270.133606,288.907898 270.063873,288.948212 270.194031,289.149353 
	C270.817749,289.570923 271.311279,289.791351 271.804840,290.011810 
	C274.655823,293.389160 278.128296,296.415771 280.262482,300.197632 
	C304.117310,342.468933 327.763245,384.858063 351.478241,427.208282 
	C352.435455,428.917725 353.519379,430.556183 354.342316,431.898346 
	C375.767914,410.582672 397.049164,389.410645 418.930878,367.641235 
	C412.381561,361.319305 405.605896,354.945587 399.070557,348.334320 
	C397.710815,346.958771 396.436493,344.602081 396.652496,342.890625 
	C396.789490,341.805176 399.671600,340.558533 401.464966,340.270325 
	C415.382996,338.033997 429.335693,336.013519 444.015991,334.110107 
	C446.162689,333.951172 447.571045,333.608276 448.979401,333.265381 
	C449.420197,333.126678 449.861023,332.987946 450.926605,333.182068 
	C456.066437,332.945404 460.705811,332.822571 465.043457,331.615601 
	C467.173065,331.022980 469.714111,328.727234 470.367371,326.663605 
	C471.788971,322.172974 472.119049,317.336761 472.895264,312.641815 
	C472.901093,312.260803 472.906891,311.879822 473.407043,311.173157 
	C476.125153,304.746368 478.348969,298.645203 480.572754,292.544006 
	C480.572754,292.544006 480.708160,292.778748 480.995544,292.758545 
	C482.187683,291.486725 483.092407,290.235077 483.997131,288.983429 
	C483.997131,288.983429 484.087280,288.801483 484.626831,288.847748 
	C489.306519,287.931183 493.433990,286.206329 497.589081,286.136993 
	C515.874573,285.831848 534.169922,285.840363 552.457886,286.060455 
	C565.078857,286.212341 571.853577,295.374664 573.184631,307.557037 
	C573.569763,311.081787 574.938354,314.499084 575.856079,317.965637 
	C577.213562,328.142365 578.652893,338.308929 579.912109,348.497833 
	C582.847656,372.251892 585.747559,396.010620 588.566284,419.778809 
	C591.404968,443.714783 594.101196,467.667633 596.909119,491.607330 
	C599.812317,516.358582 602.821960,541.097351 605.698730,565.851624 
	C608.824158,592.745483 611.839355,619.652100 614.923218,646.550842 
	C617.137939,665.868896 619.479187,685.173096 621.580200,704.503418 
	C622.596130,713.850586 623.075134,723.178040 615.555908,730.672729 
	C610.830688,735.382568 605.155823,737.853149 598.589111,737.893127 
	C577.936035,738.018738 557.279846,738.154419 536.628906,737.922974 
	C522.115356,737.760376 512.531555,728.831726 511.132996,714.420288 
	C508.627808,688.605042 506.373566,662.765381 503.991302,636.938110 
	C501.746429,612.600159 499.416809,588.269958 497.226013,563.927185 
	C495.111389,540.430603 493.178711,516.917664 491.061310,493.421326 
	C490.079041,482.521606 488.848175,471.644318 487.577515,459.272278 
	C472.514954,489.138397 458.035370,517.848572 443.026703,546.490173 
	C442.328094,534.525757 442.197021,522.629089 441.949890,510.734802 
	C441.910339,508.832184 441.350800,506.940430 440.998505,504.708252 
	C440.958008,503.923920 440.950714,503.474945 440.899780,502.716919 
	C440.477875,501.947571 440.099609,501.487274 439.505493,501.034698 
	C439.289673,501.042389 438.873810,500.925873 438.772339,500.557129 
	C438.140411,499.844330 437.616425,499.210388 437.078552,499.198364 
	C420.128540,498.819244 403.177429,498.375793 386.225555,498.335602 
	C384.177795,498.330750 382.124756,500.555298 380.035400,501.844482 
	C379.996643,501.942444 379.827698,502.068329 379.488892,502.173401 
	C378.472839,504.383026 377.232758,506.481171 377.208466,508.593262 
	C377.034241,523.751160 377.125061,538.911987 377.097473,554.071777 
	C377.045593,582.556519 376.970581,611.041321 376.905212,639.526062 
	C368.283600,639.577759 359.662018,639.629456 350.624084,639.406494 
	C350.207733,639.131775 350.108307,638.787415 350.067688,638.339600 
	C350.013245,614.033936 350.032013,590.175903 349.917725,566.318542 
	C349.909454,564.588074 348.933807,562.862244 348.314514,560.776428 
	C348.185059,559.927856 348.149017,559.437073 348.392395,558.902832 
	C348.925812,558.509155 349.179749,558.158997 349.433655,557.808777 
	C348.879211,557.559265 348.324799,557.309814 347.501526,556.914673 
	C345.813812,555.994690 344.394867,555.220276 342.742249,554.070740 
	C341.563324,553.465332 340.618774,553.038025 339.672699,553.034607 
	C326.203339,552.985779 312.733612,552.972778 299.264343,553.029785 
	C298.185303,553.034363 297.108734,553.616577 295.655334,553.960327 
	C294.778809,553.959473 294.278015,553.928711 293.777191,553.898010 
	C281.748657,539.774109 269.720093,525.650208 256.875458,510.568115 
	C256.137451,515.602783 255.418930,519.708130 254.949326,523.841736 
	C252.536087,545.083862 250.217117,566.336853 247.785400,587.576843 
	C247.379837,591.119202 246.581253,594.616516 245.597137,598.598877 
	C244.851334,599.071167 244.472641,599.079346 243.781616,598.794312 
	C225.273926,598.355286 207.078506,598.167175 188.883301,598.183777 
	C187.934189,598.184631 186.986664,599.928345 185.795685,601.054443 
	C185.047867,602.153870 184.542786,603.059570 183.748566,604.272705 
	C183.303253,606.550354 183.011932,608.520447 183.010773,610.490723 
	C182.987488,649.915344 182.931580,689.340271 183.086960,728.764282 
	C183.105804,733.547485 183.187103,737.599060 177.016525,737.923462 
	C174.628479,737.972778 172.240433,738.022034 169.126709,737.730103 
	C165.941971,737.552917 163.482941,737.716919 161.023895,737.880920 
	C150.650375,737.901123 140.276871,737.921265 129.157593,737.627380 
	C127.709915,737.352234 127.007996,737.391113 126.306084,737.429932 
	C126.306084,737.429993 125.834030,737.529114 125.834030,737.529114 
	C125.834030,737.529114 125.374336,737.383057 125.061531,737.012146 
	C124.168793,736.678467 123.588867,736.715698 123.008934,736.752930 
M364.560333,485.058594 
	C375.634583,474.233612 386.705627,463.405365 397.783844,452.584412 
	C414.673981,436.086517 431.623230,419.648254 448.377472,403.013550 
	C450.036743,401.366150 451.993744,397.649567 451.258728,396.419891 
	C449.332123,393.196777 446.350159,390.127075 443.051849,388.420380 
	C441.593445,387.665771 437.781586,389.788971 436.013733,391.572693 
	C424.069000,403.624664 412.392914,415.942719 400.616058,428.161346 
	C377.864624,451.766266 355.137695,475.394958 332.321686,498.937317 
	C327.111511,504.313354 324.318878,504.243958 318.957031,499.033997 
	C302.251038,482.801025 285.613464,466.497650 268.901703,450.270630 
	C263.308777,444.839874 261.518433,444.866943 256.141083,450.234985 
	C226.450317,479.874207 196.774033,509.527924 167.106827,539.190735 
	C163.384476,542.912537 163.052460,546.129028 165.942673,549.120667 
	C168.799622,552.077820 172.916367,551.766479 176.482773,548.250427 
	C202.915482,522.190674 229.341690,496.124420 255.759659,470.049774 
	C261.218719,464.661652 263.850525,464.708893 269.470337,470.198639 
	C285.891846,486.239960 302.310699,502.284332 318.809235,518.246277 
	C323.217316,522.510925 326.015991,522.408142 330.348572,518.223511 
	C341.602966,507.353394 352.820404,496.445007 364.560333,485.058594 
z"/>
<path fill="#FDDBD5" opacity="1.000000" stroke="none" 
	d="
M591.194702,317.849762 
	C591.017334,315.554138 590.839905,313.258484 590.961609,310.304230 
	C591.979858,306.619385 593.539062,303.482758 590.123962,301.000122 
	C590.055481,300.835663 589.987000,300.671234 590.239380,299.964203 
	C590.585510,296.566650 590.610718,293.711639 590.635986,290.856659 
	C590.974243,290.078644 591.312500,289.300629 592.084412,288.261414 
	C592.518066,288.000244 592.999512,288.000000 593.365967,287.990295 
	C595.148010,287.654205 596.563477,287.327820 598.186340,286.886963 
	C598.653625,286.580200 598.846375,286.335052 599.311401,286.026917 
	C600.103699,286.016815 600.556458,286.016937 601.319214,286.292725 
	C603.438599,286.713531 605.247925,286.983612 607.057495,286.985291 
	C637.039368,287.012939 667.021301,287.006897 697.314331,287.281677 
	C702.749207,287.372955 707.872925,287.190979 713.465454,287.007385 
	C724.290588,287.006683 734.646851,287.007599 745.286682,287.270477 
	C748.045776,287.357880 750.521240,287.183319 753.463867,287.006897 
	C758.954712,287.005676 763.978577,287.006348 769.314697,287.281128 
	C777.084106,287.372162 784.541199,287.189087 792.467041,287.004639 
	C801.291077,287.004120 809.646362,287.005005 818.313904,287.280212 
	C825.749634,287.372742 832.873047,287.190918 840.464355,287.007324 
	C846.289124,287.006470 851.646057,287.007324 857.276489,287.266632 
	C859.699402,287.352051 861.848877,287.179077 864.467163,287.004669 
	C880.382385,287.003387 895.828979,287.037384 911.275024,286.960205 
	C913.178467,286.950714 915.078918,286.347748 917.320557,286.012878 
	C918.113525,286.005005 918.566650,286.004089 919.368835,286.072418 
	C922.138672,287.255676 924.141418,291.267273 927.304565,287.236237 
	C928.086975,287.623993 928.869385,288.011719 929.826355,289.097076 
	C930.286072,293.303650 927.266663,297.625214 932.178162,300.002197 
	C935.442261,301.581970 935.989319,304.141022 936.103699,307.365143 
	C936.171082,309.264343 937.174805,311.130341 937.757507,313.011292 
	C937.822693,328.697601 937.887878,344.383942 937.520386,360.592346 
	C935.308594,362.366577 933.529480,363.618713 931.640930,364.947937 
	C932.751343,367.064789 934.031372,369.402893 929.593628,370.009796 
	C926.312134,369.919891 923.425903,369.845276 920.542847,369.706085 
	C918.592529,369.611938 916.621399,369.158020 914.703796,369.337555 
	C910.480225,369.732941 906.289612,370.467926 902.075378,370.981354 
	C900.231628,371.206024 898.363159,371.227386 896.505859,371.341064 
	C896.379578,371.811188 896.253296,372.281311 896.127014,372.751404 
	C897.331665,373.494415 898.516602,374.829437 899.744568,374.870178 
	C903.527039,374.995697 907.384216,374.971985 911.100525,374.344025 
	C914.268433,373.808777 916.331604,374.129425 916.992554,377.598724 
	C891.769226,377.669830 866.545898,377.734528 841.322571,377.816681 
	C835.181946,377.836670 829.041504,377.914032 822.249268,377.715302 
	C821.065308,377.316864 820.533081,377.168152 820.108093,376.633728 
	C823.051636,375.831818 825.896118,375.463409 828.721069,374.981110 
	C830.371033,374.699341 831.989929,374.235474 833.622864,373.853516 
	C825.649536,371.830750 818.155029,370.149719 810.571228,369.137268 
	C805.941895,368.519196 802.849304,371.497772 802.802917,375.429474 
	C807.619263,375.429474 812.443909,375.429474 816.755310,375.429474 
	C813.894287,379.131042 811.061035,382.796753 808.042297,386.702393 
	C807.963379,386.668396 807.368042,386.426544 806.784851,386.158356 
	C805.504517,385.569641 804.230286,384.967621 802.953552,384.371033 
	C802.304016,385.983978 801.502075,387.556458 801.059265,389.224335 
	C800.769958,390.313812 801.000305,391.541687 801.000244,392.707550 
	C800.999695,409.696045 800.930054,426.685059 801.053162,443.672638 
	C801.080383,447.430420 799.972839,449.172150 795.934814,449.058624 
	C788.445801,448.848145 780.945862,448.930603 773.452148,449.025452 
	C770.269226,449.065704 768.917053,447.751221 768.975769,444.559753 
	C769.079895,438.898865 769.000671,433.234650 769.000183,427.571808 
	C768.999329,417.546692 769.000000,417.546692 778.810425,416.994232 
	C783.622070,416.723267 784.955505,415.084961 784.999756,409.389984 
	C785.048584,403.108490 783.814453,401.112610 779.089539,401.056091 
	C767.099365,400.912689 755.106384,401.004974 743.114502,401.007202 
	C739.000671,401.007965 736.997803,403.097351 737.003052,407.188110 
	C737.010742,413.184052 737.002075,419.179962 736.999878,425.175903 
	C736.996948,432.967224 736.996765,432.967224 729.438477,433.000061 
	C722.177612,433.031586 721.006287,434.168640 721.004089,441.360443 
	C720.994507,472.339447 721.016724,503.318512 720.974426,534.297424 
	C720.970154,537.429199 721.638611,541.302490 720.086121,543.455017 
	C718.864258,545.149292 714.698914,544.717163 711.843201,545.241699 
	C711.518372,545.301453 711.213013,545.460327 710.890320,545.539062 
	C706.865479,546.520935 704.745789,545.132568 705.000488,540.795471 
	C705.330688,535.171143 705.959290,529.544434 705.917297,523.922852 
	C705.852234,515.209534 705.070557,506.500488 705.045044,497.788330 
	C704.938293,461.313324 705.017639,424.837830 704.972046,388.362579 
	C704.967590,384.799438 704.573364,381.236786 704.315796,376.935486 
	C700.591492,377.353790 697.278992,377.725830 693.966492,378.097870 
	C692.580566,378.008453 691.194580,377.919006 689.404480,377.346527 
	C688.817200,372.609314 686.370178,371.956055 682.592590,372.194977 
	C676.385925,372.587494 670.108093,372.826172 663.926636,372.319733 
	C659.485046,371.955780 657.631104,373.149261 657.996216,377.562500 
	C641.972107,377.651642 625.947998,377.740753 609.367188,377.433472 
	C605.528809,374.258514 602.135193,371.679108 603.816711,366.379578 
	C604.273376,364.940582 603.200195,363.016174 602.829102,361.314514 
	C602.294434,361.492218 601.759766,361.669952 601.225159,361.847656 
	C601.452942,363.083771 602.026489,364.384125 601.811951,365.538025 
	C601.594788,366.705963 600.597900,367.728912 599.942505,368.815369 
	C599.299438,367.847321 598.260193,366.944885 598.086975,365.899017 
	C597.549438,362.652924 597.557678,359.307281 596.890686,356.096588 
	C596.647339,354.925507 595.101074,354.025116 594.149231,353.001221 
	C593.348511,343.653107 592.547852,334.304962 592.103149,324.221008 
	C592.037659,321.606720 591.616150,319.728241 591.194702,317.849762 
M880.211060,355.570801 
	C878.193115,354.714294 876.210083,353.234589 874.150635,353.119263 
	C868.194336,352.785675 862.206848,352.958710 856.232361,353.012939 
	C850.459717,353.065369 848.836853,354.556702 849.070557,360.522003 
	C849.287781,366.065277 849.494812,371.219513 842.151062,372.121368 
	C841.905701,372.151489 841.748535,372.899689 841.459595,373.502197 
	C844.829285,375.303375 847.837585,376.314301 850.849426,372.895935 
	C851.718628,371.909393 853.346008,371.206573 854.688782,371.088165 
	C860.444763,370.580688 866.220398,370.233368 871.995972,370.026611 
	C880.837585,369.710114 881.089600,369.541595 880.982849,360.770233 
	C880.964783,359.291473 880.722595,357.815430 880.211060,355.570801 
z"/>
<path fill="#F9DDD3" opacity="1.000000" stroke="none" 
	d="
M694.208130,378.340515 
	C697.278992,377.725830 700.591492,377.353790 704.315796,376.935486 
	C704.573364,381.236786 704.967590,384.799438 704.972046,388.362579 
	C705.017639,424.837830 704.938293,461.313324 705.045044,497.788330 
	C705.070557,506.500488 705.852234,515.209534 705.917297,523.922852 
	C705.959290,529.544434 705.330688,535.171143 705.000488,540.795471 
	C704.745789,545.132568 706.865479,546.520935 710.890320,545.539062 
	C711.213013,545.460327 711.518372,545.301453 711.843201,545.241699 
	C714.698914,544.717163 718.864258,545.149292 720.086121,543.455017 
	C721.638611,541.302490 720.970154,537.429199 720.974426,534.297424 
	C721.016724,503.318512 720.994507,472.339447 721.004089,441.360443 
	C721.006287,434.168640 722.177612,433.031586 729.438477,433.000061 
	C736.996765,432.967224 736.996948,432.967224 736.999878,425.175903 
	C737.002075,419.179962 737.010742,413.184052 737.003052,407.188110 
	C736.997803,403.097351 739.000671,401.007965 743.114502,401.007202 
	C755.106384,401.004974 767.099365,400.912689 779.089539,401.056091 
	C783.814453,401.112610 785.048584,403.108490 784.999756,409.389984 
	C784.955505,415.084961 783.622070,416.723267 778.810425,416.994232 
	C769.000000,417.546692 768.999329,417.546692 769.000183,427.571808 
	C769.000671,433.234650 769.079895,438.898865 768.975769,444.559753 
	C768.917053,447.751221 770.269226,449.065704 773.452148,449.025452 
	C780.945862,448.930603 788.445801,448.848145 795.934814,449.058624 
	C799.972839,449.172150 801.080383,447.430420 801.053162,443.672638 
	C800.930054,426.685059 800.999695,409.696045 801.000244,392.707550 
	C801.000305,391.541687 800.769958,390.313812 801.059265,389.224335 
	C801.502075,387.556458 802.304016,385.983978 802.953552,384.371033 
	C804.230286,384.967621 805.504517,385.569641 806.784851,386.158356 
	C807.368042,386.426544 807.963379,386.668396 808.042297,386.702393 
	C811.061035,382.796753 813.894287,379.131042 816.755310,375.429474 
	C812.443909,375.429474 807.619263,375.429474 802.802917,375.429474 
	C802.849304,371.497772 805.941895,368.519196 810.571228,369.137268 
	C818.155029,370.149719 825.649536,371.830750 833.622864,373.853516 
	C831.989929,374.235474 830.371033,374.699341 828.721069,374.981110 
	C825.896118,375.463409 823.051636,375.831818 819.878906,376.810547 
	C819.359741,377.909851 819.177063,378.446686 818.994385,378.983521 
	C814.519165,381.770721 812.645203,385.748322 812.649963,391.061523 
	C812.681152,426.057831 812.525574,461.054169 812.505310,496.050568 
	C812.464233,567.214172 812.490845,638.377747 812.403931,709.541321 
	C812.398865,713.662842 812.256958,717.971191 811.092407,721.868042 
	C808.018616,732.153992 800.463623,737.689148 789.969604,737.876587 
	C768.815063,738.254578 747.642395,738.243530 726.488892,737.816650 
	C713.932251,737.563293 705.021606,728.582214 703.918457,716.123840 
	C703.449280,710.824951 703.375183,705.477966 703.373291,700.152771 
	C703.337585,599.322083 703.340759,498.491333 703.325928,397.660614 
	C703.325562,395.330139 703.231323,392.998901 703.144043,390.669373 
	C702.921387,384.722656 700.143127,380.601074 694.208130,378.340515 
z"/>
<path fill="#FCDCD4" opacity="1.000000" stroke="none" 
	d="
M438.873810,500.925873 
	C438.873810,500.925873 439.289673,501.042389 439.607971,501.319702 
	C440.265320,502.073334 440.604370,502.549652 440.943420,503.025970 
	C440.950714,503.474945 440.958008,503.923920 440.972931,505.171570 
	C440.955322,518.591187 440.893097,531.212280 440.947815,543.832886 
	C440.955353,545.568909 441.543335,547.302429 441.862549,549.037109 
	C441.544342,551.655334 440.951447,554.273254 440.948242,556.891846 
	C440.880188,612.809143 440.878906,668.726501 440.862793,724.643860 
	C440.860168,733.821899 437.219299,737.895874 428.082520,738.037720 
	C415.774139,738.228882 403.454681,738.191284 391.148834,737.890259 
	C382.566345,737.680359 378.669525,733.696167 378.608673,725.186646 
	C378.407532,697.064636 378.397522,668.941162 378.277222,639.973877 
	C378.151855,635.823059 377.987854,632.516602 377.986603,629.210205 
	C377.972565,591.742615 377.916229,554.274719 378.069000,516.807678 
	C378.089020,511.892273 379.214294,506.981354 379.827698,502.068329 
	C379.827698,502.068329 379.996643,501.942444 380.343262,501.645233 
	C382.553253,500.841125 384.413727,499.907013 386.280396,499.894562 
	C401.874542,499.790314 417.470062,499.819000 433.064514,499.916046 
	C435.002960,499.928131 436.937469,500.573822 438.873810,500.925873 
z"/>
<path fill="#FBDDD5" opacity="1.000000" stroke="none" 
	d="
M342.975952,554.445923 
	C344.394867,555.220276 345.813812,555.994690 347.562195,557.228516 
	C347.965424,558.107422 348.039185,558.526855 348.112946,558.946289 
	C348.149017,559.437073 348.185059,559.927856 348.239166,561.199524 
	C348.462280,574.412048 348.828278,586.843689 348.828613,599.275330 
	C348.828979,612.538391 348.483856,625.801514 348.222473,639.378906 
	C348.205566,639.901611 348.255737,640.109924 348.305908,640.318176 
	C348.309174,668.805969 348.375732,697.293945 348.276367,725.781372 
	C348.247314,734.113464 344.776764,737.810181 336.474396,737.987671 
	C323.819702,738.258179 311.150726,738.225647 298.495300,737.962219 
	C290.921692,737.804626 287.649597,733.880981 287.632172,725.426025 
	C287.552216,686.608521 287.547119,647.790771 287.556671,608.973145 
	C287.560303,594.147522 287.711151,579.321899 287.716675,564.496277 
	C287.718353,560.024719 288.881927,556.289246 293.448303,553.988647 
	C294.278015,553.928711 294.778809,553.959473 296.120117,553.988892 
	C312.299042,554.140381 327.637512,554.293152 342.975952,554.445923 
z"/>
<path fill="#FBDCD4" opacity="1.000000" stroke="none" 
	d="
M244.093964,599.087463 
	C244.472641,599.079346 244.851334,599.071167 245.513062,599.038330 
	C245.877441,603.661133 246.029648,608.308655 246.028885,612.956238 
	C246.022766,650.055542 245.989594,687.154785 245.960236,724.254089 
	C245.951920,734.765686 242.985992,737.992310 232.375076,738.109253 
	C216.905396,738.279724 201.432220,738.133972 185.454346,737.612000 
	C184.646072,734.300232 184.084717,731.499878 184.080826,728.698669 
	C184.023041,687.120911 184.039108,645.543091 184.037689,603.965271 
	C184.542786,603.059570 185.047867,602.153870 186.185242,600.929199 
	C196.881500,600.232727 206.943268,599.774292 217.010071,599.501770 
	C226.035156,599.257385 235.065781,599.217529 244.093964,599.087463 
z"/>
<path fill="#FEF1EB" opacity="1.000000" stroke="none" 
	d="
M601.009277,286.017090 
	C600.556458,286.016937 600.103699,286.016815 599.108154,286.143799 
	C598.316223,286.471313 598.120789,286.714813 597.979004,287.001434 
	C596.563477,287.327820 595.148010,287.654205 593.365723,287.734253 
	C592.996338,287.317230 592.993713,287.146545 592.991028,286.975830 
	C596.101807,286.053284 599.211670,284.328125 602.323547,284.324432 
	C706.567627,284.199921 810.811829,284.239105 915.056030,284.262695 
	C916.052917,284.262909 917.049805,284.373932 918.474548,284.806732 
	C918.966309,285.451019 919.005432,285.725342 919.019836,286.003174 
	C918.566650,286.004089 918.113525,286.005005 916.854248,286.008301 
	C811.035156,286.012848 706.022217,286.014984 601.009277,286.017090 
z"/>
<path fill="#FAB4B0" opacity="1.000000" stroke="none" 
	d="
M575.911316,317.531738 
	C574.938354,314.499084 573.569763,311.081787 573.184631,307.557037 
	C571.853577,295.374664 565.078857,286.212341 552.457886,286.060455 
	C534.169922,285.840363 515.874573,285.831848 497.589081,286.136993 
	C493.433990,286.206329 489.306519,287.931183 484.727783,288.858643 
	C488.344482,287.302734 492.373840,284.556396 496.459473,284.469971 
	C515.999023,284.056610 535.553833,284.364258 555.679321,284.734192 
	C556.255493,285.052795 556.660889,285.141815 556.660889,285.141815 
	C556.660889,285.141815 557.038879,284.970520 557.038879,284.970520 
	C566.455811,286.500366 571.497131,292.756500 573.730713,301.352203 
	C575.055481,306.450165 575.258972,311.839508 575.911316,317.531738 
z"/>
<path fill="#FAB4B0" opacity="1.000000" stroke="none" 
	d="
M269.925171,288.629059 
	C242.948730,282.904816 215.391556,287.397797 188.044983,285.972778 
	C186.136093,285.873322 184.245682,285.419586 182.174072,284.794830 
	C207.207565,284.405273 232.415894,284.171814 257.617584,284.480408 
	C261.665802,284.529938 265.684418,286.999390 269.925171,288.629059 
z"/>
<path fill="#F9DDD3" opacity="1.000000" stroke="none" 
	d="
M917.409119,377.701904 
	C916.331604,374.129425 914.268433,373.808777 911.100525,374.344025 
	C907.384216,374.971985 903.527039,374.995697 899.744568,374.870178 
	C898.516602,374.829437 897.331665,373.494415 896.127014,372.751404 
	C896.253296,372.281311 896.379578,371.811188 896.505859,371.341064 
	C898.363159,371.227386 900.231628,371.206024 902.075378,370.981354 
	C906.289612,370.467926 910.480225,369.732941 914.703796,369.337555 
	C916.621399,369.158020 918.592529,369.611938 920.542847,369.706085 
	C923.425903,369.845276 926.312134,369.919891 929.556885,370.330719 
	C929.278870,372.444611 928.640991,374.249817 928.003174,376.054993 
	C924.610657,376.638367 921.218140,377.221741 917.409119,377.701904 
z"/>
<path fill="#F9DDD3" opacity="1.000000" stroke="none" 
	d="
M658.453125,377.673340 
	C657.631104,373.149261 659.485046,371.955780 663.926636,372.319733 
	C670.108093,372.826172 676.385925,372.587494 682.592590,372.194977 
	C686.370178,371.956055 688.817200,372.609314 689.002441,377.233856 
	C678.973022,377.664215 668.941528,377.724213 658.453125,377.673340 
z"/>
<path fill="#B7847F" opacity="1.000000" stroke="none" 
	d="
M379.488892,502.173401 
	C379.214294,506.981354 378.089020,511.892273 378.069000,516.807678 
	C377.916229,554.274719 377.972565,591.742615 377.986603,629.210205 
	C377.987854,632.516602 378.151855,635.823059 378.179321,639.506592 
	C377.911804,639.838745 377.705200,639.793701 377.201904,639.637390 
	C376.970581,611.041321 377.045593,582.556519 377.097473,554.071777 
	C377.125061,538.911987 377.034241,523.751160 377.208466,508.593262 
	C377.232758,506.481171 378.472839,504.383026 379.488892,502.173401 
z"/>
<path fill="#D59691" opacity="1.000000" stroke="none" 
	d="
M183.748566,604.272705 
	C184.039108,645.543091 184.023041,687.120911 184.080826,728.698669 
	C184.084717,731.499878 184.646072,734.300232 184.994919,737.528198 
	C182.653275,738.027039 180.264893,738.098694 177.446503,738.046997 
	C183.187103,737.599060 183.105804,733.547485 183.086960,728.764282 
	C182.931580,689.340271 182.987488,649.915344 183.010773,610.490723 
	C183.011932,608.520447 183.303253,606.550354 183.748566,604.272705 
z"/>
<path fill="#F9DDD3" opacity="1.000000" stroke="none" 
	d="
M594.084900,353.443359 
	C595.101074,354.025116 596.647339,354.925507 596.890686,356.096588 
	C597.557678,359.307281 597.549438,362.652924 598.086975,365.899017 
	C598.260193,366.944885 599.299438,367.847321 599.942505,368.815369 
	C600.597900,367.728912 601.594788,366.705963 601.811951,365.538025 
	C602.026489,364.384125 601.452942,363.083771 601.225159,361.847656 
	C601.759766,361.669952 602.294434,361.492218 602.829102,361.314514 
	C603.200195,363.016174 604.273376,364.940582 603.816711,366.379578 
	C602.135193,371.679108 605.528809,374.258514 608.906006,377.346558 
	C599.687378,378.046021 595.678955,374.452179 595.010437,365.191437 
	C594.738098,361.418640 594.353882,357.653900 594.084900,353.443359 
z"/>
<path fill="#F1D5CD" opacity="1.000000" stroke="none" 
	d="
M937.843750,312.557678 
	C937.174805,311.130341 936.171082,309.264343 936.103699,307.365143 
	C935.989319,304.141022 935.442261,301.581970 932.178162,300.002197 
	C927.266663,297.625214 930.286072,293.303650 930.006104,289.382080 
	C936.066101,293.130188 937.373291,299.490753 937.903442,306.170410 
	C938.059509,308.136627 937.929199,310.125580 937.843750,312.557678 
z"/>
<path fill="#F1D5CD" opacity="1.000000" stroke="none" 
	d="
M928.359619,376.038818 
	C928.640991,374.249817 929.278870,372.444611 929.953491,370.318481 
	C934.031372,369.402893 932.751343,367.064789 931.640930,364.947937 
	C933.529480,363.618713 935.308594,362.366577 937.419800,361.050476 
	C938.308350,368.142944 935.175659,373.082397 928.359619,376.038818 
z"/>
<path fill="#FAB4B0" opacity="1.000000" stroke="none" 
	d="
M472.621063,312.901245 
	C472.119049,317.336761 471.788971,322.172974 470.367371,326.663605 
	C469.714111,328.727234 467.173065,331.022980 465.043457,331.615601 
	C460.705811,332.822571 456.066437,332.945404 451.271698,333.242920 
	C454.865051,332.221283 458.714844,331.299652 462.617920,330.772797 
	C466.147186,330.296448 468.230194,328.808289 468.986694,325.116272 
	C469.815491,321.071411 471.202881,317.140961 472.621063,312.901245 
z"/>
<path fill="#D59691" opacity="1.000000" stroke="none" 
	d="
M442.161743,548.918213 
	C441.543335,547.302429 440.955353,545.568909 440.947815,543.832886 
	C440.893097,531.212280 440.955322,518.591187 441.006104,505.506958 
	C441.350800,506.940430 441.910339,508.832184 441.949890,510.734802 
	C442.197021,522.629089 442.328094,534.525757 442.782257,546.730835 
	C442.864929,547.626465 442.662933,548.212891 442.161743,548.918213 
z"/>
<path fill="#FAB4B0" opacity="1.000000" stroke="none" 
	d="
M480.271179,292.705322 
	C478.348969,298.645203 476.125153,304.746368 473.544983,310.917358 
	C475.448944,304.946991 477.709259,298.906799 480.271179,292.705322 
z"/>
<path fill="#F1D5CD" opacity="1.000000" stroke="none" 
	d="
M919.368835,286.072418 
	C919.005432,285.725342 918.966309,285.451019 918.910645,284.972290 
	C921.592712,285.405151 924.266602,286.045929 927.122498,286.961487 
	C924.141418,291.267273 922.138672,287.255676 919.368835,286.072418 
z"/>
<path fill="#FBDDD5" opacity="1.000000" stroke="none" 
	d="
M590.054199,301.370789 
	C593.539062,303.482758 591.979858,306.619385 590.934692,309.907166 
	C590.400635,307.359619 590.192566,304.550568 590.054199,301.370789 
z"/>
<path fill="#FBDDD5" opacity="1.000000" stroke="none" 
	d="
M590.366699,291.102783 
	C590.610718,293.711639 590.585510,296.566650 590.307983,299.705963 
	C590.069641,297.109833 590.083496,294.229370 590.366699,291.102783 
z"/>
<path fill="#FBDDD5" opacity="1.000000" stroke="none" 
	d="
M591.100708,318.195068 
	C591.616150,319.728241 592.037659,321.606720 592.172363,323.766479 
	C591.592590,322.211914 591.299622,320.376129 591.100708,318.195068 
z"/>
<path fill="#FAB4B0" opacity="1.000000" stroke="none" 
	d="
M483.673584,289.042450 
	C483.092407,290.235077 482.187683,291.486725 480.900879,292.661621 
	C481.462555,291.423737 482.406281,290.262604 483.673584,289.042450 
z"/>
<path fill="#FAB4B0" opacity="1.000000" stroke="none" 
	d="
M448.622803,333.193237 
	C447.571045,333.608276 446.162689,333.951172 444.447235,334.164429 
	C445.515472,333.730225 446.890839,333.425629 448.622803,333.193237 
z"/>
<path fill="#D59691" opacity="1.000000" stroke="none" 
	d="
M161.452835,737.997437 
	C163.482941,737.716919 165.941971,737.552917 168.687561,737.638916 
	C166.610001,737.963928 164.245880,738.038879 161.452835,737.997437 
z"/>
<path fill="#F1D5CD" opacity="1.000000" stroke="none" 
	d="
M819.316467,378.977600 
	C819.177063,378.446686 819.359741,377.909851 819.771606,377.196228 
	C820.533081,377.168152 821.065308,377.316864 821.779236,377.679932 
	C821.186768,378.253418 820.412598,378.612549 819.316467,378.977600 
z"/>
<path fill="#FAB4B0" opacity="1.000000" stroke="none" 
	d="
M271.696777,289.748657 
	C271.311279,289.791351 270.817749,289.570923 270.189026,289.109375 
	C270.565491,289.074005 271.077118,289.279755 271.696777,289.748657 
z"/>
<path fill="#B7847F" opacity="1.000000" stroke="none" 
	d="
M348.626953,640.213745 
	C348.255737,640.109924 348.205566,639.901611 348.524292,639.335388 
	C349.298218,638.914185 349.703278,638.850769 350.108307,638.787415 
	C350.108307,638.787415 350.207733,639.131775 350.174500,639.307800 
	C349.743561,639.692383 349.345795,639.900879 348.626953,640.213745 
z"/>
<path fill="#D59691" opacity="1.000000" stroke="none" 
	d="
M123.318420,736.908386 
	C123.588867,736.715698 124.168793,736.678467 124.872940,736.862122 
	C124.540749,737.076599 124.084328,737.070190 123.318420,736.908386 
z"/>
<path fill="#D59691" opacity="1.000000" stroke="none" 
	d="
M126.599304,737.628662 
	C127.007996,737.391113 127.709915,737.352234 128.696030,737.533936 
	C128.284332,737.778748 127.588432,737.803101 126.599304,737.628662 
z"/>
<path fill="#FBDDD5" opacity="1.000000" stroke="none" 
	d="
M592.707031,287.002930 
	C592.993713,287.146545 592.996338,287.317230 592.999207,287.743958 
	C592.999512,288.000000 592.518066,288.000244 592.277588,288.000366 
	C592.165833,287.677032 592.294434,287.353546 592.707031,287.002930 
z"/>
<path fill="#B7847F" opacity="1.000000" stroke="none" 
	d="
M556.912231,284.793640 
	C557.038879,284.970520 556.660889,285.141815 556.660889,285.141815 
	C556.660889,285.141815 556.255493,285.052795 556.122803,284.893311 
	C556.223267,284.477264 556.488403,284.438232 556.912231,284.793640 
z"/>
<path fill="#0D0404" opacity="1.000000" stroke="none" 
	d="
M364.306458,485.305237 
	C352.820404,496.445007 341.602966,507.353394 330.348572,518.223511 
	C326.015991,522.408142 323.217316,522.510925 318.809235,518.246277 
	C302.310699,502.284332 285.891846,486.239960 269.470337,470.198639 
	C263.850525,464.708893 261.218719,464.661652 255.759659,470.049774 
	C229.341690,496.124420 202.915482,522.190674 176.482773,548.250427 
	C172.916367,551.766479 168.799622,552.077820 165.942673,549.120667 
	C163.052460,546.129028 163.384476,542.912537 167.106827,539.190735 
	C196.774033,509.527924 226.450317,479.874207 256.141083,450.234985 
	C261.518433,444.866943 263.308777,444.839874 268.901703,450.270630 
	C285.613464,466.497650 302.251038,482.801025 318.957031,499.033997 
	C324.318878,504.243958 327.111511,504.313354 332.321686,498.937317 
	C355.137695,475.394958 377.864624,451.766266 400.616058,428.161346 
	C412.392914,415.942719 424.069000,403.624664 436.013733,391.572693 
	C437.781586,389.788971 441.593445,387.665771 443.051849,388.420380 
	C446.350159,390.127075 449.332123,393.196777 451.258728,396.419891 
	C451.993744,397.649567 450.036743,401.366150 448.377472,403.013550 
	C431.623230,419.648254 414.673981,436.086517 397.783844,452.584412 
	C386.705627,463.405365 375.634583,474.233612 364.306458,485.305237 
z"/>
<path fill="#D59691" opacity="1.000000" stroke="none" 
	d="
M350.067688,638.339600 
	C349.703278,638.850769 349.298218,638.914185 348.591370,639.021057 
	C348.483856,625.801514 348.828979,612.538391 348.828613,599.275330 
	C348.828278,586.843689 348.462280,574.412048 348.332550,561.557312 
	C348.933807,562.862244 349.909454,564.588074 349.917725,566.318542 
	C350.032013,590.175903 350.013245,614.033936 350.067688,638.339600 
z"/>
<path fill="#D59691" opacity="1.000000" stroke="none" 
	d="
M243.781616,598.794312 
	C235.065781,599.217529 226.035156,599.257385 217.010071,599.501770 
	C206.943268,599.774292 196.881500,600.232727 186.427979,600.735474 
	C186.986664,599.928345 187.934189,598.184631 188.883301,598.183777 
	C207.078506,598.167175 225.273926,598.355286 243.781616,598.794312 
z"/>
<path fill="#B7847F" opacity="1.000000" stroke="none" 
	d="
M438.772339,500.557129 
	C436.937469,500.573822 435.002960,499.928131 433.064514,499.916046 
	C417.470062,499.819000 401.874542,499.790314 386.280396,499.894562 
	C384.413727,499.907013 382.553253,500.841125 380.382019,501.547302 
	C382.124756,500.555298 384.177795,498.330750 386.225555,498.335602 
	C403.177429,498.375793 420.128540,498.819244 437.078552,499.198364 
	C437.616425,499.210388 438.140411,499.844330 438.772339,500.557129 
z"/>
<path fill="#D59691" opacity="1.000000" stroke="none" 
	d="
M342.742249,554.070740 
	C327.637512,554.293152 312.299042,554.140381 296.495819,553.958984 
	C297.108734,553.616577 298.185303,553.034363 299.264343,553.029785 
	C312.733612,552.972778 326.203339,552.985779 339.672699,553.034607 
	C340.618774,553.038025 341.563324,553.465332 342.742249,554.070740 
z"/>
<path fill="#D59691" opacity="1.000000" stroke="none" 
	d="
M348.392395,558.902832 
	C348.039185,558.526855 347.965424,558.107422 347.830994,557.374146 
	C348.324799,557.309814 348.879211,557.559265 349.433655,557.808777 
	C349.179749,558.158997 348.925812,558.509155 348.392395,558.902832 
z"/>
<path fill="#B7847F" opacity="1.000000" stroke="none" 
	d="
M440.899780,502.716919 
	C440.604370,502.549652 440.265320,502.073334 439.823792,501.312012 
	C440.099609,501.487274 440.477875,501.947571 440.899780,502.716919 
z"/>
<path fill="#F9DDD3" opacity="1.000000" stroke="none" 
	d="
M880.397461,355.954468 
	C880.722595,357.815430 880.964783,359.291473 880.982849,360.770233 
	C881.089600,369.541595 880.837585,369.710114 871.995972,370.026611 
	C866.220398,370.233368 860.444763,370.580688 854.688782,371.088165 
	C853.346008,371.206573 851.718628,371.909393 850.849426,372.895935 
	C847.837585,376.314301 844.829285,375.303375 841.459595,373.502197 
	C841.748535,372.899689 841.905701,372.151489 842.151062,372.121368 
	C849.494812,371.219513 849.287781,366.065277 849.070557,360.522003 
	C848.836853,354.556702 850.459717,353.065369 856.232361,353.012939 
	C862.206848,352.958710 868.194336,352.785675 874.150635,353.119263 
	C876.210083,353.234589 878.193115,354.714294 880.397461,355.954468 
z"/>
<path fill="#F1D5CD" opacity="1.000000" stroke="none" 
	d="
M601.319214,286.292725 
	C706.022217,286.014984 811.035156,286.012848 916.514404,286.015259 
	C915.078918,286.347748 913.178467,286.950714 911.275024,286.960205 
	C895.828979,287.037384 880.382385,287.003387 864.029907,287.002258 
	C861.083618,287.003571 859.043335,287.005890 857.003052,287.008209 
	C851.646057,287.007324 846.289124,287.006470 839.996216,287.004395 
	C832.040771,287.004120 825.021179,287.005005 818.001648,287.005859 
	C809.646362,287.005005 801.291077,287.004120 791.998657,287.002197 
	C783.708496,287.003113 776.355469,287.005096 769.002380,287.007050 
	C763.978577,287.006348 758.954712,287.005676 753.020142,287.003906 
	C749.740601,287.004730 747.371887,287.006622 745.003113,287.008545 
	C734.646851,287.007599 724.290588,287.006683 712.999084,287.004028 
	C707.043640,287.004364 702.023376,287.006378 697.003174,287.008423 
	C667.021301,287.006897 637.039368,287.012939 607.057495,286.985291 
	C605.247925,286.983612 603.438599,286.713531 601.319214,286.292725 
z"/>
<path fill="#FBDDD5" opacity="1.000000" stroke="none" 
	d="
M769.314697,287.281128 
	C776.355469,287.005096 783.708496,287.003113 791.529968,287.003601 
	C784.541199,287.189087 777.084106,287.372162 769.314697,287.281128 
z"/>
<path fill="#FBDDD5" opacity="1.000000" stroke="none" 
	d="
M818.313904,287.280212 
	C825.021179,287.005005 832.040771,287.004120 839.528442,287.006165 
	C832.873047,287.190918 825.749634,287.372742 818.313904,287.280212 
z"/>
<path fill="#FBDDD5" opacity="1.000000" stroke="none" 
	d="
M697.314331,287.281677 
	C702.023376,287.006378 707.043640,287.004364 712.530273,287.005676 
	C707.872925,287.190979 702.749207,287.372955 697.314331,287.281677 
z"/>
<path fill="#FBDDD5" opacity="1.000000" stroke="none" 
	d="
M745.286682,287.270477 
	C747.371887,287.006622 749.740601,287.004730 752.553101,287.005798 
	C750.521240,287.183319 748.045776,287.357880 745.286682,287.270477 
z"/>
<path fill="#FBDDD5" opacity="1.000000" stroke="none" 
	d="
M857.276489,287.266632 
	C859.043335,287.005890 861.083618,287.003571 863.561157,287.003662 
	C861.848877,287.179077 859.699402,287.352051 857.276489,287.266632 
z"/>
<path fill="#F1D5CD" opacity="1.000000" stroke="none" 
	d="
M598.186340,286.886963 
	C598.120789,286.714813 598.316223,286.471313 598.768677,286.154022 
	C598.846375,286.335052 598.653625,286.580200 598.186340,286.886963 
z"/>
</svg>